/* XPM */
static char * closeA_xpm[] = {
"19 54 231 2",
"  	c None",
". 	c #585650",
"+ 	c #575650",
"@ 	c #57554F",
"# 	c #56554F",
"$ 	c #4D4C47",
"% 	c #4C4B46",
"& 	c #454540",
"* 	c #464641",
"= 	c #484642",
"- 	c #494843",
"; 	c #4A4944",
"> 	c #4B4A45",
", 	c #46443F",
"' 	c #45423D",
") 	c #3E3C37",
"! 	c #3A3935",
"~ 	c #393835",
"{ 	c #45433E",
"] 	c #474741",
"^ 	c #464540",
"/ 	c #45443F",
"( 	c #3F3E39",
"_ 	c #393834",
": 	c #8A5D4F",
"< 	c #C07861",
"[ 	c #E0886E",
"} 	c #F79477",
"| 	c #454440",
"1 	c #44433F",
"2 	c #3D3C38",
"3 	c #55453D",
"4 	c #DE8368",
"5 	c #F88F6F",
"6 	c #F78D6C",
"7 	c #F78B6A",
"8 	c #F68968",
"9 	c #3D3B37",
"0 	c #464440",
"a 	c #3E3D39",
"b 	c #5B463E",
"c 	c #EC8668",
"d 	c #F58563",
"e 	c #F37F5B",
"f 	c #57443C",
"g 	c #3E3E39",
"h 	c #474641",
"i 	c #484742",
"j 	c #44433E",
"k 	c #3C3A35",
"l 	c #D9785A",
"m 	c #F07B56",
"n 	c #EE744D",
"o 	c #F17C57",
"p 	c #D77557",
"q 	c #3B3934",
"r 	c #865341",
"s 	c #EF7750",
"t 	c #EB6B40",
"u 	c #D5613A",
"v 	c #C15835",
"w 	c #C55A36",
"x 	c #D15F39",
"y 	c #855341",
"z 	c #393935",
"A 	c #C5684A",
"B 	c #EB6C42",
"C 	c #E9673B",
"D 	c #BE5937",
"E 	c #4C2518",
"F 	c #BF5531",
"G 	c #C35732",
"H 	c #4E2618",
"I 	c #BA5836",
"J 	c #464541",
"K 	c #E2704B",
"L 	c #E96538",
"M 	c #E86336",
"N 	c #EA6F46",
"O 	c #C17257",
"P 	c #4C2517",
"Q 	c #9F4527",
"R 	c #4E2518",
"S 	c #BD6F55",
"T 	c #EA7047",
"U 	c #E1704B",
"V 	c #EC6F46",
"W 	c #E65F31",
"X 	c #E86C41",
"Y 	c #A05B44",
"Z 	c #401F14",
"` 	c #9C5942",
" .	c #E86D43",
"..	c #E66032",
"+.	c #E96E46",
"@.	c #DF663F",
"#.	c #E65C2F",
"$.	c #E55B2D",
"%.	c #C04E27",
"&.	c #9A5842",
"*.	c #BC4C27",
"=.	c #E65D2F",
"-.	c #DD653E",
";.	c #BA5937",
">.	c #E55C2D",
",.	c #E35828",
"'.	c #BF4B24",
").	c #4E2517",
"!.	c #BB694D",
"~.	c #E77047",
"{.	c #C16D51",
"].	c #4C2417",
"^.	c #BB4A23",
"/.	c #3E3C39",
"(.	c #7D4632",
"_.	c #E25424",
":.	c #C9542E",
"<.	c #BC694C",
"[.	c #E56337",
"}.	c #E46134",
"|.	c #C06B4F",
"1.	c #C7552E",
"2.	c #E55B2E",
"3.	c #794533",
"4.	c #43423D",
"5.	c #3C3834",
"6.	c #C7542D",
"7.	c #E35526",
"8.	c #E15120",
"9.	c #E35A2B",
"0.	c #E35F32",
"a.	c #E35E31",
"b.	c #E35B2C",
"c.	c #E35626",
"d.	c #B24F2D",
"e.	c #454541",
"f.	c #42413D",
"g.	c #484743",
"h.	c #3F3D3A",
"i.	c #533C31",
"j.	c #D45326",
"k.	c #E25221",
"l.	c #E04E1C",
"m.	c #4B3B33",
"n.	c #3F3E3A",
"o.	c #44443E",
"p.	c #42413C",
"q.	c #484843",
"r.	c #474742",
"s.	c #3D3C37",
"t.	c #483B33",
"u.	c #AD4925",
"v.	c #E0501E",
"w.	c #E04E1B",
"x.	c #DF4D1A",
"y.	c #DF4C19",
"z.	c #444440",
"A.	c #41403C",
"B.	c #474642",
"C.	c #703E2A",
"D.	c #AF4721",
"E.	c #D24B1C",
"F.	c #403E3A",
"G.	c #40403C",
"H.	c #403F3B",
"I.	c #40403B",
"J.	c #403F3A",
"K.	c #43423F",
"L.	c #3E3D38",
"M.	c #3C3B37",
"N.	c #3F3D38",
"O.	c #3B3A36",
"P.	c #774C39",
"Q.	c #A5593A",
"R.	c #C8643B",
"S.	c #EA6F3B",
"T.	c #514137",
"U.	c #CA653B",
"V.	c #EE703B",
"W.	c #3E3C38",
"X.	c #474541",
"Y.	c #534137",
"Z.	c #DF6C3C",
"`.	c #EE703C",
" +	c #3D3B36",
".+	c #CA663C",
"++	c #EE713C",
"@+	c #794E3A",
"#+	c #D76536",
"$+	c #C35C32",
"%+	c #C75E32",
"&+	c #D36335",
"*+	c #BA613D",
"=+	c #C15B31",
"-+	c #4C2615",
";+	c #4E2616",
">+	c #BD5930",
",+	c #DF6D3E",
"'+	c #A24D2A",
")+	c #DD6C3E",
"!+	c #EE7340",
"~+	c #A04C29",
"{+	c #402013",
"]+	c #9C4A28",
"^+	c #EA7140",
"/+	c #DF6E3F",
"(+	c #9A4928",
"_+	c #DD6D3F",
":+	c #BB633E",
"<+	c #7E503B",
"[+	c #EE723E",
"}+	c #D16234",
"|+	c #BF5A31",
"1+	c #CF6134",
"2+	c #7A4F3B",
"3+	c #454441",
"4+	c #CD6A40",
"5+	c #B6623F",
"6+	c #403E3B",
"7+	c #564339",
"8+	c #DD6E42",
"9+	c #4E4138",
"0+	c #4C4039",
"a+	c #B66240",
"b+	c #ED7341",
"c+	c #EE713D",
"d+	c #794E3B",
"e+	c #BB6440",
"f+	c #DF7043",
"g+	c #ED7443",
"h+	c #413F3B",
". . . . . . + + + + + + @ @ @ @ @ # # ",
"$ $ $ $ $ $ $ $ $ $ $ $ $ $ $ $ $ $ $ ",
"% % % % % % % % % % % % % % % % % % % ",
"% % % % % % % % % % % % % % % % % % % ",
"& & & & & & & & & * = - ; > > > > > > ",
", , , , ' ) ! ~ ~ ~ ! ) { ] - ; ; ; ; ",
"^ ^ / ( _ : < [ } [ < : _ ( ^ - ; ; ; ",
"| 1 2 3 4 5 6 7 8 7 6 5 4 3 9 0 - - - ",
"& a b c d e e e e e e e d c f g h i i ",
"j k l m n n n n n n n n n o p q j i i ",
"2 r s t t u v t t t w x t t s y 2 h h ",
"z A B C C D E F C G H I C C B A ~ J J ",
"_ K L M M N O P Q R S T M M L U _ ^ ^ ",
"_ V W W W W X Y Z `  .W W W ..+._ / / ",
"_ @.#.$.$.$.%.H &.E *.$.$.$.=.-._ 1 1 ",
"~ ;.>.,.,.'.).!.~.{.].^.,.,.>.;.~ j j ",
"/.(.$._._.:.<.[._.}.|.1._._.2.3.a 4.4.",
"| 5.6.7.8.9.0.8.8.8.a.b.8.c.d.~ e.f.f.",
"g.h.i.j.k.l.l.l.l.l.l.l.k.j.m.n.o.p.p.",
"q.r.s.t.u.v.w.x.y.x.w.v.u.t.2 z.A.A.A.",
"g.g.B.n.~ C.D.E.x.E.D.C.~ F.| G.H.H.H.",
"g.g.g.g.J a ! _ _ _ ! a e.1 I.J.J.J.J.",
"g.g.g.g.g.g.g.g.g.B.J K.H.n.n.n.n.n.n.",
"a a a a a a a a a a a a a a a a a a a ",
"L.L.L.L.L.L.L.L.L.L.L.L.L.L.L.L.L.L.L.",
"2 2 2 2 2 2 2 2 2 2 2 2 2 2 2 2 2 2 2 ",
"M.M.M.M.M.M.M.M.M.M.M.M.M.M.M.M.M.M.M.",
". . . . . . + + + + + + @ @ @ @ @ # # ",
"$ $ $ $ $ $ $ $ $ $ $ $ $ $ $ $ $ $ $ ",
"% % % % % % % % % % % % % % % % % % % ",
"% % % % % % % % % % % % % % % % % % % ",
"& & & & & & & & & * = - ; > > > > > > ",
", , , , ' N.M.O.M.O.M.N.{ ] - ; ; ; ; ",
"^ ^ ^ J.O.P.Q.R.S.R.Q.P.O.J.h - ; ; ; ",
"| | a T.U.V.V.V.V.V.V.V.U.T.W.X.- - - ",
"& n.Y.Z.`.V.V.V.V.V.V.V.`.Z.Y.n.h i i ",
"j  +.+`.V.V.V.V.V.V.V.V.V.++.+ +j i i ",
"a @+++V.V.#+$+V.V.V.%+&+V.V.++@+a h h ",
"M.*+++V.V.=+-+$+V.%+;+>+V.V.++*+M.J J ",
"O.,+V.V.V.V.=+-+'+;+>+V.V.V.V.)+O.^ ^ ",
"O.!+V.V.V.V.V.~+{+]+V.V.V.V.V.^+O./ / ",
"O./+V.V.V.V.%+;+(+-+$+V.V.V.V._+O.1 1 ",
"M.:+++V.V.%+;+>+V.$+-+$+V.V.++:+M.j j ",
"h.<+[+V.V.}+|+V.V.V.$+1+V.V.!+2+n.4.4.",
"3+ +4+[+V.V.V.V.V.V.V.V.V.[+5+O.e.f.f.",
"g.6+7+8+[+V.V.V.V.V.V.V.[+8+9+H.o.p.p.",
"q.q.g 0+a+b+c+`.V.`.c+b+a+0+g e.A.A.A.",
"g.g.g.H.O.d+e+f+g+f+e+d+O.h+J G.H.H.H.",
"g.g.g.g.J n.M.O.M.O.M.n.e.1 I.J.J.J.J.",
"g.g.g.g.g.g.g.g.g.B.J K.H.n.n.n.n.n.n.",
"a a a a a a a a a a a a a a a a a a a ",
"L.L.L.L.L.L.L.L.L.L.L.L.L.L.L.L.L.L.L.",
"2 2 2 2 2 2 2 2 2 2 2 2 2 2 2 2 2 2 2 ",
"M.M.M.M.M.M.M.M.M.M.M.M.M.M.M.M.M.M.M."};
