/* XPM */
static char * closeI_xpm[] = {
"19 54 94 2",
"  	c None",
". 	c #43423E",
"+ 	c #42423E",
"@ 	c #403F3C",
"# 	c #3C3B37",
"$ 	c #3C3B38",
"% 	c #3D3C38",
"& 	c #3F3D39",
"* 	c #3E3D38",
"= 	c #3F3F3B",
"- 	c #403F3B",
"; 	c #474641",
"> 	c #4F4E49",
", 	c #55544F",
"' 	c #5B5A54",
") 	c #3F3E3B",
"! 	c #56554F",
"~ 	c #5C5B55",
"{ 	c #3D3C39",
"] 	c #5A5954",
"^ 	c #3E3D3A",
"/ 	c #575650",
"( 	c #5D5C56",
"_ 	c #484742",
": 	c #504F4A",
"< 	c #54534D",
"[ 	c #3F3E3A",
"} 	c #55544E",
"| 	c #4E4D48",
"1 	c #2A2A27",
"2 	c #2B2B27",
"3 	c #4D4C47",
"4 	c #5B5A56",
"5 	c #45443F",
"6 	c #5B5A55",
"7 	c #5F5E58",
"8 	c #44443F",
"9 	c #272723",
"0 	c #5E5D57",
"a 	c #5C5B56",
"b 	c #42423D",
"c 	c #3E3D39",
"d 	c #4A4944",
"e 	c #53524D",
"f 	c #53524C",
"g 	c #494843",
"h 	c #5A5953",
"i 	c #5E5D58",
"j 	c #42413C",
"k 	c #3D3B39",
"l 	c #403F3A",
"m 	c #605F59",
"n 	c #585751",
"o 	c #5F5E59",
"p 	c #62615B",
"q 	c #3C3C37",
"r 	c #696862",
"s 	c #74736C",
"t 	c #43423D",
"u 	c #6A6962",
"v 	c #75746D",
"w 	c #71706A",
"x 	c #6B6A63",
"y 	c #76756E",
"z 	c #6B6A64",
"A 	c #64635D",
"B 	c #696962",
"C 	c #65645E",
"D 	c #61605A",
"E 	c #2F2E2B",
"F 	c #2F2F2C",
"G 	c #72716B",
"H 	c #54534E",
"I 	c #72716A",
"J 	c #777670",
"K 	c #292926",
"L 	c #51514C",
"M 	c #76756F",
"N 	c #73726C",
"O 	c #50504B",
"P 	c #73726B",
"Q 	c #676660",
"R 	c #77766F",
"S 	c #686861",
"T 	c #676760",
"U 	c #51504B",
"V 	c #6E6D67",
"W 	c #66655F",
"X 	c #454440",
"Y 	c #42413D",
"Z 	c #787770",
"` 	c #686761",
" .	c #75746E",
"..	c #7A7972",
". . . . . . . . . . . . + + + + + + + ",
"@ @ @ @ @ @ @ @ @ @ @ @ @ @ @ @ @ @ @ ",
"@ @ @ @ @ @ @ @ @ @ @ @ @ @ @ @ @ @ @ ",
"@ @ @ @ @ @ @ @ @ @ @ @ @ @ @ @ @ @ @ ",
"# # # # # # # # # $ % & @ @ @ @ @ @ @ ",
"# # # # # # # # # # # # # * = - - - - ",
"# # # # # ; > , ' , > ; # # % ) ) ) ) ",
"# # # - ! ~ ~ ~ ~ ~ ~ ~ ! - # { ) ) ) ",
"# # - ] ~ ~ ~ ~ ~ ~ ~ ~ ~ ] - # ^ ) ) ",
"# # / ( ~ ~ ~ ~ ~ ~ ~ ~ ~ ( / # # ) ) ",
"# _ ( ~ ~ , > ~ ~ ~ : < ~ ~ ( _ # [ [ ",
"# } ( ~ ~ | 1 > ~ : 2 3 ~ ~ ( } # ^ ^ ",
"# 4 ~ ~ ~ ~ | 1 5 2 3 ~ ~ ~ ~ 6 # ^ ^ ",
"# 7 ~ ~ ~ ~ ~ 8 9 . ~ ~ ~ ~ ~ 0 # ^ ^ ",
"# a ~ ~ ~ ~ : 2 b 1 > ~ ~ ~ ~ ~ # c c ",
"# ! ( ~ ~ : 2 3 ~ > 1 > ~ ~ ( ! # c c ",
"# d 7 ~ ~ e | ~ ~ ~ > f ~ ~ 7 g # c c ",
"# # h 0 ~ ~ ~ ~ ~ ~ ~ ~ ~ i ! # # { { ",
"# # j 0 7 ~ ~ ~ ~ ~ ~ ~ 7 0 - # k { { ",
"# # # l ! m 0 a ~ a 0 m ! l # $ % % % ",
"# # # # # g n o p o n g # # # % % % % ",
"# # # # # # # # # # # # # q % % % % % ",
"# # # # # # # # # # # $ $ $ $ $ $ $ $ ",
"# # # # # # # # # # # # # # # # # # # ",
"# # # # # # # # # # # # # # # # # # # ",
"# # # # # # # # # # # # # # # # # # # ",
"# # # # # # # # # # # # # # # # # # # ",
". . . . . . . . . . . . + + + + + + + ",
"@ @ @ @ @ @ @ @ @ @ @ @ @ @ @ @ @ @ @ ",
"@ @ @ @ @ @ @ @ @ @ @ @ @ @ @ @ @ @ @ ",
"@ @ @ @ @ @ @ @ @ @ @ @ @ @ @ @ @ @ @ ",
"# # # # # # # # # $ % & @ @ @ @ @ @ @ ",
"# # # # # # # # # # # # # * = - - - - ",
"# # # # # > 0 r s r 0 > # # % ) ) ) ) ",
"# # # t u v v v v v v v u t # { ) ) ) ",
"# # . w v v v v v v v v v w . # ^ ) ) ",
"# # x v v v v v v v v v v y x # # ) ) ",
"# : y v v z p v v v A B v v y : # [ [ ",
"# C y v v D E p v A F m v v y C # ^ ^ ",
"# G v v v v D E H F m v v v v I # ^ ^ ",
"# J v v v v v e K L v v v v v M # ^ ^ ",
"# N v v v v A F O E p v v v v P # c c ",
"# Q y v v A F m v p E p v v y Q # c c ",
"# e R v v S D v v v p T v v J U # c c ",
"# # V R v v v v v v v v v R W # # { { ",
"# # X s R v v v v v v v R s Y # k { { ",
"# # # j Q Z y v v v y Z Q j # $ % % % ",
"# # # # # U `  ... .` U # # # % % % % ",
"# # # # # # # # # # # # # q % % % % % ",
"# # # # # # # # # # # $ $ $ $ $ $ $ $ ",
"# # # # # # # # # # # # # # # # # # # ",
"# # # # # # # # # # # # # # # # # # # ",
"# # # # # # # # # # # # # # # # # # # ",
"# # # # # # # # # # # # # # # # # # # "};
