/* XPM */
static char * maximizeA_xpm[] = {
"19 54 189 2",
"  	c None",
". 	c #5A5852",
"+ 	c #595852",
"@ 	c #595851",
"# 	c #595751",
"$ 	c #585751",
"% 	c #585750",
"& 	c #4D4C47",
"* 	c #4C4B46",
"= 	c #454540",
"- 	c #44443F",
"; 	c #43433E",
"> 	c #42423D",
", 	c #41403C",
"' 	c #403F3B",
") 	c #40403B",
"! 	c #40403A",
"~ 	c #42423E",
"{ 	c #46443F",
"] 	c #45433E",
"^ 	c #44423E",
"/ 	c #43413C",
"( 	c #403F39",
"_ 	c #3C3B38",
": 	c #3A3935",
"< 	c #393834",
"[ 	c #383733",
"} 	c #42413C",
"| 	c #44423D",
"1 	c #45443F",
"2 	c #44433E",
"3 	c #3D3C38",
"4 	c #53524E",
"5 	c #777671",
"6 	c #878782",
"7 	c #94938E",
"8 	c #888782",
"9 	c #787773",
"0 	c #555450",
"a 	c #43423E",
"b 	c #41403B",
"c 	c #7C7B77",
"d 	c #93928D",
"e 	c #91908B",
"f 	c #8E8D89",
"g 	c #8C8B85",
"h 	c #94938D",
"i 	c #807F7A",
"j 	c #3C3B37",
"k 	c #44433F",
"l 	c #3D3C39",
"m 	c #878681",
"n 	c #8D8D86",
"o 	c #888781",
"p 	c #878780",
"q 	c #878680",
"r 	c #86857F",
"s 	c #898884",
"t 	c #41403D",
"u 	c #41413D",
"v 	c #3F3F3A",
"w 	c #7A7A74",
"x 	c #898881",
"y 	c #84837D",
"z 	c #83827C",
"A 	c #82817B",
"B 	c #81807A",
"C 	c #807F79",
"D 	c #898882",
"E 	c #7D7C75",
"F 	c #403E3A",
"G 	c #43423D",
"H 	c #51504C",
"I 	c #7F7E78",
"J 	c #3E3D39",
"K 	c #54544F",
"L 	c #393835",
"M 	c #6B6A64",
"N 	c #7E7D76",
"O 	c #7B7A73",
"P 	c #7A7973",
"Q 	c #7F7E77",
"R 	c #706F69",
"S 	c #42403C",
"T 	c #76756F",
"U 	c #787770",
"V 	c #77766F",
"W 	c #76756E",
"X 	c #75746D",
"Y 	c #44423F",
"Z 	c #777670",
"` 	c #73726B",
" .	c #74736C",
"..	c #41413C",
"+.	c #6F6E69",
"@.	c #706F68",
"#.	c #72716A",
"$.	c #73726C",
"%.	c #43433F",
"&.	c #605F5B",
"*.	c #6D6C66",
"=.	c #6C6B65",
"-.	c #6E6D67",
";.	c #3E3D38",
">.	c #64635E",
",.	c #444240",
"'.	c #686761",
").	c #6A6962",
"!.	c #4E4D48",
"~.	c #464441",
"{.	c #444340",
"].	c #5F5F5A",
"^.	c #66655F",
"/.	c #64645E",
"(.	c #6D6C67",
"_.	c #72716B",
":.	c #61615B",
"<.	c #403F3C",
"[.	c #454441",
"}.	c #474642",
"|.	c #3F3E3B",
"1.	c #61605C",
"2.	c #62625C",
"3.	c #61605A",
"4.	c #62615B",
"5.	c #63625C",
"6.	c #64635D",
"7.	c #61605B",
"8.	c #62615D",
"9.	c #464641",
"0.	c #565550",
"a.	c #5F5E59",
"b.	c #5E5D58",
"c.	c #5E5D57",
"d.	c #5C5B56",
"e.	c #3B3A37",
"f.	c #474742",
"g.	c #464541",
"h.	c #454440",
"i.	c #484742",
"j.	c #53534D",
"k.	c #5A5A54",
"l.	c #5A5955",
"m.	c #54544E",
"n.	c #494843",
"o.	c #43413D",
"p.	c #484743",
"q.	c #42413D",
"r.	c #43433D",
"s.	c #45433F",
"t.	c #42413B",
"u.	c #3C3A36",
"v.	c #3B3A36",
"w.	c #464540",
"x.	c #4B4A45",
"y.	c #605F59",
"z.	c #65645E",
"A.	c #686760",
"B.	c #3C3C38",
"C.	c #6F6E67",
"D.	c #717069",
"E.	c #3D3D38",
"F.	c #6B6A63",
"G.	c #504F4A",
"H.	c #62615C",
"I.	c #67665F",
"J.	c #474542",
"K.	c #71706A",
"L.	c #464642",
"M.	c #444440",
"N.	c #676660",
"O.	c #464442",
"P.	c #52514C",
"Q.	c #484643",
"R.	c #464542",
"S.	c #42413F",
"T.	c #3D3C37",
"U.	c #474643",
"V.	c #3F3D3A",
"W.	c #3E3D3A",
"X.	c #454541",
"Y.	c #484843",
"Z.	c #3E3E39",
"`.	c #797972",
" +	c #7A7972",
".+	c #6E6D66",
"++	c #585752",
"@+	c #464440",
"#+	c #3D3D39",
". . + @ @ @ @ # # # # # # $ $ $ $ % % ",
"& & & & & & & & & & & & & & & & & & & ",
"* * * * * * * * * * * * * * * * * * * ",
"* * * * * * * * * * * * * * * * * * * ",
"= = - ; - ; > , ' ) ! , > ~ - ; - = = ",
"{ ] ^ ^ / ( _ : < [ < : _ ( } ^ | ] { ",
"1 2 2 } 3 [ 4 5 6 7 8 9 0 [ 3 , 2 2 1 ",
"a a , 3 b c d e f g f e h i a j , a k ",
"- > l , m n o p q r r p o n s t 3 u - ",
"a v [ w x y z A B C B A z y D E < F k ",
"G _ H r I I J : : : : : : I I r K _ 2 ",
"t L M N O P J Q N N N Q J P O N R : a ",
"S [ T U V V J W W X W W J V V U P [ Y ",
", [ Z ` `  .J X X X X X J  .` ` P [ a ",
"..[ +.@.R #.J  .X X X X J #.R @.$.[ %.",
"u : &.*.=.-.;.#. . . .` ;.-.=.*.>.L - ",
",.j * M '.).3 : : : : : : ).'.=.!.j ~.",
"{.' < ].^./.(.R #._.#.R -./.^.:.< <.[.",
"}.{.3 |.1.2.3.4.5.6.6.4.7.2.8.' 3 k }.",
"9.9.~ j _ 0.a.b.c.c.c.b.a.d.' e.G 9.f.",
"}.g.h.~ 3 [ i.j.k.l.k.m.n.< 3 o.h.g.}.",
"p.}.g.g.{., _ L [ [ [ L j ) k h.g.}.p.",
"p.p.}.g.}.{.{.o.q.q.q.o.k {.}.g.}.p.p.",
"J J J J J J J J J J J J J J J J J J J ",
";.;.;.;.;.;.;.;.;.;.;.;.;.;.;.;.;.;.;.",
"3 3 3 3 3 3 3 3 3 3 3 3 3 3 3 3 3 3 3 ",
"j j j j j j j j j j j j j j j j j j j ",
". . + @ @ @ @ # # # # # # $ $ $ $ % % ",
"& & & & & & & & & & & & & & & & & & & ",
"* * * * * * * * * * * * * * * * * * * ",
"* * * * * * * * * * * * * * * * * * * ",
"= = = - = - - ; G ; r.; - - = - = = = ",
"{ { s.s.] t.3 u.v.j v.u.3 t.2 s.] { { ",
"w.1 1 2 J v.x.y.).R ).3.* v.J 2 1 1 w.",
"k k a 3 b z.X X X X X X X A.G B.a k h.",
"= - J b C.X X X X X X X X X D.q.E.%.= ",
"1 ..v.'.X X X X X X X X X X W F.j S w.",
"1 3 & W X X !.* * * * * * X X W G.3 w.",
"k e.H.W X X !.X X X X X !.X X W I.v.g.",
"s.v.C.X X X !.X X X X X !.X X X _.v.J.",
"k v.X X X X !.X X X X X !.X X X Z v.g.",
"- v.K.X X X !.X X X X X !.X X X X v.L.",
"M.v.N.W X X !.X X X X X !.X X W F.v.f.",
"O.3 P.V X X !.* * * * * * X X Z 0.l Q.",
"R.S.j -.V X X X X X X X X X V D.T.a U.",
"p.R.V.g.W V X X X X X X X V V p.W.g.p.",
"f.f.X.3 k M U W X X X W U _.n.3 w.f.Y.",
"p.}.}.X.Z.v.0.=.`. +`..+++3 Z.@+}.}.p.",
"p.p.}.}.R.2 #+e.v.j v.e.3 ; g.}.}.p.p.",
"p.p.p.}.p.R.R.@+h.h.h.@+g.R.p.}.p.p.p.",
"J J J J J J J J J J J J J J J J J J J ",
";.;.;.;.;.;.;.;.;.;.;.;.;.;.;.;.;.;.;.",
"3 3 3 3 3 3 3 3 3 3 3 3 3 3 3 3 3 3 3 ",
"j j j j j j j j j j j j j j j j j j j "};
