/* XPM */
static char * minimizeI_xpm[] = {
"19 54 74 1",
" 	c None",
".	c #43423E",
"+	c #403F3C",
"@	c #3E3D3A",
"#	c #3D3C39",
"$	c #3C3B38",
"%	c #3C3B37",
"&	c #403F3B",
"*	c #3F3F3B",
"=	c #3E3D38",
"-	c #3F3E3B",
";	c #3D3B38",
">	c #474641",
",	c #4F4E49",
"'	c #55544F",
")	c #5B5A54",
"!	c #3D3C38",
"~	c #56554F",
"{	c #5C5B55",
"]	c #3E3C39",
"^	c #5A5954",
"/	c #3E3D3B",
"(	c #575650",
"_	c #5D5C56",
":	c #3F3E3A",
"<	c #3D3D39",
"[	c #484742",
"}	c #55544E",
"|	c #5B5A56",
"1	c #5B5A55",
"2	c #5F5E58",
"3	c #3A3935",
"4	c #5E5D57",
"5	c #3E3D39",
"6	c #3C3C37",
"7	c #5C5B56",
"8	c #4A4944",
"9	c #494843",
"0	c #5A5953",
"a	c #5E5D58",
"b	c #565550",
"c	c #42413C",
"d	c #575651",
"e	c #605F59",
"f	c #585752",
"g	c #61605A",
"h	c #62615B",
"i	c #3C3C38",
"j	c #696862",
"k	c #74736C",
"l	c #43423D",
"m	c #6A6962",
"n	c #75746D",
"o	c #71706A",
"p	c #6B6A63",
"q	c #76756E",
"r	c #504F4A",
"s	c #65645E",
"t	c #72716B",
"u	c #72716A",
"v	c #777670",
"w	c #76756F",
"x	c #73726C",
"y	c #73726B",
"z	c #676660",
"A	c #53524D",
"B	c #77766F",
"C	c #51504B",
"D	c #6E6D67",
"E	c #67665F",
"F	c #454440",
"G	c #74736D",
"H	c #787770",
"I	c #7A7972",
"...................",
"+++++++++++++++++++",
"+++++++++++++++++++",
"+++++++++++++++++++",
"+++++++@#$%%%%%%%%%",
"&&&&*=%%%%%%%%%%%%%",
"----;%%>,')',>%%%%%",
"---!%&~{{{{{{{~&%%%",
"--]%&^{{{{{{{{{^&%%",
"-/%%(_{{{{{{{{{_(%%",
":<%[_{{{{{{{{{{{_[%",
"@%%}_{{{{{{{{{{{_}%",
"@%%|{{{{{{{{{{{{{1%",
"@%%2{{{3333333{{{4%",
"56%7{{{{{{{{{{{{{{%",
"5!%~_{{{{{{{{{{{_~%",
"5!%82{{{{{{{{{{{29%",
"##%%04{{{{{{{{{ab%%",
"##;%c22{{{{{{{2a&%%",
"!!!6%&de47{74ed&%%%",
"!!!!6%%8fghgf8%%%%%",
"!!!!!i%%%%%%%%%%%%%",
"$$$$$$$$%%%%%%%%%%%",
"%%%%%%%%%%%%%%%%%%%",
"%%%%%%%%%%%%%%%%%%%",
"%%%%%%%%%%%%%%%%%%%",
"%%%%%%%%%%%%%%%%%%%",
"...................",
"+++++++++++++++++++",
"+++++++++++++++++++",
"+++++++++++++++++++",
"+++++++@#$%%%%%%%%%",
"&&&&*=%%%%%%%%%%%%%",
"----;%%,4jkj4,%%%%%",
"---!%lmnnnnnnnml%%%",
"--]%.onnnnnnnnno.%%",
"-/%%pnnnnnnnnnnqp%%",
":<%rqnnnnnnnnnnnqr%",
"@%%sqnnnnnnnnnnnqs%",
"@%%tnnnnnnnnnnnnnu%",
"@%%vnnn3333333nnnw%",
"56%xnnnnnnnnnnnnny%",
"5!%zqnnnnnnnnnnnqz%",
"5!%ABnnnnnnnnnnnvC%",
"##%%DBnnnnnnnnnBE%%",
"##;%FnBnnnnnnnBG.%%",
"!!!6%.jHqnnnqHj.%%%",
"!!!!6%%AjHIHjA%%%%%",
"!!!!!i%%%%%%%%%%%%%",
"$$$$$$$$%%%%%%%%%%%",
"%%%%%%%%%%%%%%%%%%%",
"%%%%%%%%%%%%%%%%%%%",
"%%%%%%%%%%%%%%%%%%%",
"%%%%%%%%%%%%%%%%%%%"};
