/* XPM */
static char * minimizeA_xpm[] = {
"19 54 193 2",
"  	c None",
". 	c #5B5A53",
"+ 	c #5B5953",
"@ 	c #5B5952",
"# 	c #5A5952",
"$ 	c #5A5852",
"% 	c #4D4C47",
"& 	c #4C4B46",
"* 	c #4B4A45",
"= 	c #4A4944",
"- 	c #494843",
"; 	c #474641",
"> 	c #45453F",
", 	c #42413E",
"' 	c #41413B",
") 	c #40403B",
"! 	c #40403A",
"~ 	c #41403C",
"{ 	c #42423D",
"] 	c #42423E",
"^ 	c #44443F",
"/ 	c #43433E",
"( 	c #454540",
"_ 	c #484742",
": 	c #403F3A",
"< 	c #3A3935",
"[ 	c #393733",
"} 	c #383733",
"| 	c #403F39",
"1 	c #42413C",
"2 	c #44423D",
"3 	c #45433E",
"4 	c #464540",
"5 	c #42403E",
"6 	c #3B3A36",
"7 	c #595854",
"8 	c #74736E",
"9 	c #878682",
"0 	c #989792",
"a 	c #43423E",
"b 	c #44433E",
"c 	c #393835",
"d 	c #82817D",
"e 	c #94938D",
"f 	c #91908B",
"g 	c #8E8D89",
"h 	c #8C8B85",
"i 	c #393935",
"j 	c #3B3A37",
"k 	c #444340",
"l 	c #8A8985",
"m 	c #8D8D86",
"n 	c #888781",
"o 	c #878780",
"p 	c #86857F",
"q 	c #43423F",
"r 	c #41413D",
"s 	c #45443F",
"t 	c #403E3B",
"u 	c #393834",
"v 	c #7E7D77",
"w 	c #898881",
"x 	c #84837D",
"y 	c #83827C",
"z 	c #82817B",
"A 	c #81807A",
"B 	c #807F79",
"C 	c #84837C",
"D 	c #898882",
"E 	c #7D7C75",
"F 	c #403E3A",
"G 	c #55544F",
"H 	c #7F7E78",
"I 	c #7F7E77",
"J 	c #7E7D76",
"K 	c #7C7B74",
"L 	c #7B7A73",
"M 	c #7A7973",
"N 	c #54544F",
"O 	c #464541",
"P 	c #403F3D",
"Q 	c #373633",
"R 	c #6E6E68",
"S 	c #7D7C76",
"T 	c #797871",
"U 	c #787770",
"V 	c #77766F",
"W 	c #76756E",
"X 	c #75746D",
"Y 	c #797872",
"Z 	c #40403C",
"` 	c #7A7A73",
" .	c #73726B",
"..	c #74736C",
"+.	c #72716A",
"@.	c #797972",
"#.	c #44433F",
"$.	c #41403D",
"%.	c #71706B",
"&.	c #706F68",
"*.	c #71706A",
"=.	c #6F6F68",
"-.	c #706F6A",
";.	c #605F5B",
">.	c #6D6C66",
",.	c #6C6B64",
"'.	c #6E6D66",
").	c #706F69",
"!.	c #43423D",
"~.	c #6B6A64",
"{.	c #686761",
"].	c #696862",
"^.	c #6F6E67",
"/.	c #676660",
"(.	c #4A4945",
"_.	c #3B3936",
":.	c #42413D",
"<.	c #403F3C",
"[.	c #5F5F5A",
"}.	c #66655F",
"|.	c #64635D",
"1.	c #65655E",
"2.	c #6A6962",
"3.	c #595954",
"4.	c #41403B",
"5.	c #3C3A37",
"6.	c #3E3D3A",
"7.	c #61605A",
"8.	c #62615B",
"9.	c #63625C",
"0.	c #62625C",
"a.	c #3D3C37",
"b.	c #3B3B36",
"c.	c #3F3E3B",
"d.	c #3F3E3A",
"e.	c #41413E",
"f.	c #5F5E59",
"g.	c #5E5D58",
"h.	c #5D5C57",
"i.	c #3C3B37",
"j.	c #464641",
"k.	c #403F3B",
"l.	c #3E3D39",
"m.	c #454440",
"n.	c #51514B",
"o.	c #595953",
"p.	c #5A5A55",
"q.	c #3F3E39",
"r.	c #3E3D38",
"s.	c #3A3A36",
"t.	c #383633",
"u.	c #413F3D",
"v.	c #474642",
"w.	c #484743",
"x.	c #3D3C38",
"y.	c #474741",
"z.	c #44443E",
"A.	c #43433D",
"B.	c #3C3A36",
"C.	c #42413B",
"D.	c #46443F",
"E.	c #454340",
"F.	c #4F4E49",
"G.	c #5E5D57",
"H.	c #3C3C38",
"I.	c #3D3D38",
"J.	c #43433F",
"K.	c #42403D",
"L.	c #6B6A63",
"M.	c #42403C",
"N.	c #504F4A",
"O.	c #65645E",
"P.	c #72716B",
"Q.	c #777670",
"R.	c #76756F",
"S.	c #73726C",
"T.	c #3B3B37",
"U.	c #53524D",
"V.	c #51504B",
"W.	c #3E3C39",
"X.	c #6E6D67",
"Y.	c #67665F",
"Z.	c #43413F",
"`.	c #3F3D3A",
" +	c #74736D",
".+	c #3E3E39",
"++	c #464542",
"@+	c #444440",
"#+	c #474742",
"$+	c #7A7972",
"%+	c #3D3D39",
"&+	c #44423F",
"*+	c #454441",
". . + + + + + + @ # # # # # $ $ $ $ $ ",
"% % % % % % % % % % % % % % % % % % % ",
"& & & & & & & & & & & & & & & & & & & ",
"& & & & & & & & & & & & & & & & & & & ",
"* * * = - = ; > , ' ) ! ~ { ] ^ / ^ ( ",
"= = - _ ; / : < [ } } } [ < | 1 2 2 3 ",
"= - _ 4 5 6 } 7 8 9 0 9 8 7 } 6 ~ a b ",
"- ; 4 ~ c ] d e f g h g f e d ] i ~ a ",
"_ ; { j k l m n o p p p o n m l q 6 r ",
"_ s t u v w x y z A B A z y C D E u F ",
"; , < G p H I J K L M L K J I H p N < ",
"O P Q R S M M T U V V V U T M M S R } ",
"4 ~ } M V V W W W W X W W W W V V Y } ",
"s Z } `  . ...< < < < < < < .. .+.@.} ",
"#.$.} %.&.&.*.M L K K K L M *.=.&.-.} ",
"b $.} ;.>.,.'.).+. ... .+.&.'.,.>.;.} ",
"!.1 < & ~.{.].~.'.^.&.^.'.~.]./.~.(._.",
":.<.<.u [.}.|.1.{.].2.].{.1.|.}.3.} P ",
"1 4.r 5.6.7.8.7.8.9.|.9.8.7.0.;.a.b.k ",
"~ c.d.e.< j G f.g.h.h.h.g.f.G i.< #.j.",
"k.d.l.l., b.} m.n.o.p.o.n.m.} 5.#.O O ",
": : q.r.r.' P s.t.} } } t.s.u.k O O v.",
"d.d.d.l.l.l.l.<.P :.:., , k m.v.O v.w.",
"l.l.l.l.l.l.l.l.l.l.l.l.l.l.l.l.l.l.l.",
"r.r.r.r.r.r.r.r.r.r.r.r.r.r.r.r.r.r.r.",
"x.x.x.x.x.x.x.x.x.x.x.x.x.x.x.x.x.x.x.",
"i.i.i.i.i.i.i.i.i.i.i.i.i.i.i.i.i.i.i.",
". . + + + + + + @ # # # # # $ $ $ $ $ ",
"% % % % % % % % % % % % % % % % % % % ",
"& & & & & & & & & & & & & & & & & & & ",
"& & & & & & & & & & & & & & & & & & & ",
"* * * * = * - y.m.z./ A./ ^ ^ ( ^ ( ( ",
"= = = - _ ( 1 x.B.6 i.6 B.x.C.b 3 3 D.",
"= = - _ E.l.6 F.G.]...].G.F.6 l.b s s ",
"- _ ; b H.!.2.X X X X X X X 2.!.H.a #.",
"_ _ ^ l.a *.X X X X X X X X X *.a I.J.",
"_ ; K.i.L.X X X X X X X X X X W L.i.M.",
"; k x.N.W X X X X X X X X X X X W N.x.",
"O q j O.W X X X X X X X X X X X W O.6 ",
"4 #.6 P.X X X X X X X X X X X X X +.6 ",
"s J.6 Q.X X X < < < < < < < X X X R.6 ",
"#.k 6 S.X X X X X X X X X X X X X  .6 ",
"b #.6 /.W X X X X X X X X X X X W /.T.",
"!.b x.U.V X X X X X X X X X X X Q.V.W.",
":.$.q i.X.V X X X X X X X X X V Y.6 Z.",
"1 1 J.`.m.X V X X X X X X X V  +a .+++",
"~ <.k.@+x.a ].U W X X X W U ].a x.j.#+",
"k.k.d.d.m..+6 U.].U $+U ].U.6 `.O v.v.",
": : : q.q.A.q %+5.6 i.6 5.%+&+++v.v.w.",
"d.d.d.d.d.d.d., q m.m.*+*+++v.w.v.w.w.",
"l.l.l.l.l.l.l.l.l.l.l.l.l.l.l.l.l.l.l.",
"r.r.r.r.r.r.r.r.r.r.r.r.r.r.r.r.r.r.r.",
"x.x.x.x.x.x.x.x.x.x.x.x.x.x.x.x.x.x.x.",
"i.i.i.i.i.i.i.i.i.i.i.i.i.i.i.i.i.i.i."};
