/* XPM */
static char * restoreA_xpm[] = {
"19 54 200 2",
"  	c None",
". 	c #595851",
"+ 	c #595751",
"@ 	c #585751",
"# 	c #585750",
"$ 	c #585650",
"% 	c #4D4C47",
"& 	c #4C4B46",
"* 	c #454540",
"= 	c #44443F",
"- 	c #43433E",
"; 	c #42423D",
"> 	c #41403C",
", 	c #403F3B",
"' 	c #40403B",
") 	c #40403A",
"! 	c #42423E",
"~ 	c #46443F",
"{ 	c #45433E",
"] 	c #44423E",
"^ 	c #43413C",
"/ 	c #403F39",
"( 	c #3A3935",
"_ 	c #393733",
": 	c #383733",
"< 	c #42413C",
"[ 	c #44423D",
"} 	c #45443F",
"| 	c #44433E",
"1 	c #3C3B36",
"2 	c #53524E",
"3 	c #777671",
"4 	c #878782",
"5 	c #94938E",
"6 	c #888782",
"7 	c #787773",
"8 	c #555450",
"9 	c #3B3A36",
"0 	c #43423E",
"a 	c #41403B",
"b 	c #7C7B77",
"c 	c #93928D",
"d 	c #91908B",
"e 	c #8E8D89",
"f 	c #8C8B85",
"g 	c #94938D",
"h 	c #807F7A",
"i 	c #393935",
"j 	c #44433F",
"k 	c #3B3A37",
"l 	c #878681",
"m 	c #8D8D86",
"n 	c #888781",
"o 	c #878780",
"p 	c #878680",
"q 	c #86857F",
"r 	c #898884",
"s 	c #41403D",
"t 	c #41413D",
"u 	c #3F3F3A",
"v 	c #7A7A74",
"w 	c #898881",
"x 	c #84837D",
"y 	c #83827C",
"z 	c #82817B",
"A 	c #81807A",
"B 	c #807F79",
"C 	c #898882",
"D 	c #7D7C75",
"E 	c #393834",
"F 	c #403E3A",
"G 	c #43423D",
"H 	c #3A3936",
"I 	c #51504C",
"J 	c #7F7E78",
"K 	c #7E7D76",
"L 	c #7C7B74",
"M 	c #7B7A73",
"N 	c #7A7973",
"O 	c #54544F",
"P 	c #373633",
"Q 	c #6B6A64",
"R 	c #3E3D39",
"S 	c #706F69",
"T 	c #42403C",
"U 	c #76756F",
"V 	c #787770",
"W 	c #77766F",
"X 	c #44423F",
"Y 	c #777670",
"Z 	c #73726B",
"` 	c #74736C",
" .	c #75746D",
"..	c #41413C",
"+.	c #6F6E69",
"@.	c #706F68",
"#.	c #72716A",
"$.	c #73726C",
"%.	c #43433F",
"&.	c #605F5B",
"*.	c #6D6C66",
"=.	c #6C6B65",
"-.	c #6E6D67",
";.	c #3E3D38",
">.	c #64635E",
",.	c #444240",
"'.	c #686761",
").	c #6A6962",
"!.	c #75746E",
"~.	c #767670",
"{.	c #75746F",
"].	c #73736D",
"^.	c #4E4D48",
"/.	c #464441",
"(.	c #444340",
"_.	c #403F3C",
":.	c #5F5F5A",
"<.	c #66655F",
"[.	c #64645E",
"}.	c #6A6963",
"|.	c #61615B",
"1.	c #454441",
"2.	c #474642",
"3.	c #3C3A37",
"4.	c #3F3E3B",
"5.	c #61605C",
"6.	c #62625C",
"7.	c #61605A",
"8.	c #62615B",
"9.	c #63625C",
"0.	c #64635D",
"a.	c #61605B",
"b.	c #62615D",
"c.	c #464641",
"d.	c #3C3B38",
"e.	c #565550",
"f.	c #5F5E59",
"g.	c #5E5D58",
"h.	c #5E5D57",
"i.	c #5C5B56",
"j.	c #393835",
"k.	c #474742",
"l.	c #464541",
"m.	c #454440",
"n.	c #3B3B36",
"o.	c #484742",
"p.	c #53534D",
"q.	c #5A5A54",
"r.	c #5A5955",
"s.	c #54544E",
"t.	c #494843",
"u.	c #43413D",
"v.	c #484743",
"w.	c #3A3A36",
"x.	c #42413D",
"y.	c #3D3C38",
"z.	c #3C3B37",
"A.	c #43433D",
"B.	c #45433F",
"C.	c #42413B",
"D.	c #3C3A36",
"E.	c #464540",
"F.	c #4B4A45",
"G.	c #605F59",
"H.	c #65645E",
"I.	c #686760",
"J.	c #3C3C38",
"K.	c #6F6E67",
"L.	c #717069",
"M.	c #3D3D38",
"N.	c #76756E",
"O.	c #6B6A63",
"P.	c #504F4A",
"Q.	c #62615C",
"R.	c #67665F",
"S.	c #72716B",
"T.	c #474542",
"U.	c #71706A",
"V.	c #464642",
"W.	c #444440",
"X.	c #676660",
"Y.	c #464442",
"Z.	c #52514C",
"`.	c #3D3C39",
" +	c #484643",
".+	c #464542",
"++	c #42413F",
"@+	c #3D3C37",
"#+	c #474643",
"$+	c #3F3D3A",
"%+	c #3E3D3A",
"&+	c #454541",
"*+	c #484843",
"=+	c #3E3E39",
"-+	c #797972",
";+	c #7A7972",
">+	c #6E6D66",
",+	c #585752",
"'+	c #464440",
")+	c #3D3D39",
". . . + + + + + + + @ @ @ @ # # $ $ $ ",
"% % % % % % % % % % % % % % % % % % % ",
"& & & & & & & & & & & & & & & & & & & ",
"& & & & & & & & & & & & & & & & & & & ",
"* * = - = - ; > , ' ) > ; ! = - = * * ",
"~ { ] ] ^ / ( _ : : : _ ( / < ] [ { ~ ",
"} | | < 1 : 2 3 4 5 6 7 8 : 9 > | | } ",
"0 0 > ( a b c d e f e d g h 0 i > 0 j ",
"= ; k > l m n o p q q o n m r s 9 t = ",
"0 u : v w x y z A B A z y x C D E F j ",
"G H I q J J K L M N M L K J J q O ( | ",
"s P Q K M N R ( ( ( ( ( ( N M K S : 0 ",
"T : U V W W R D D L D D R W W V N : X ",
"> : Y Z Z ` R  . . . . .R ` Z Z N : 0 ",
"..: +.@.S #.R `  . . . .R #.S @.$.: %.",
"t : &.*.=.-.;.( ( ( ( ( ( -.=.*.>.P = ",
",.( & Q '.).Z !.~.3 ~.{.].).'.=.^.H /.",
"(._.E :.<.[.<.'.).}.).'.<.[.<.|.E _.1.",
"2.(.3.4.5.6.7.8.9.0.0.8.a.6.b., k j 2.",
"c.c.! ( d.e.f.g.h.h.h.g.f.i., j.G c.k.",
"2.l.m.! n.: o.p.q.r.q.s.t.E n.u.m.l.2.",
"v.2.l.l.(.> w.P : : : P ( ' j m.l.2.v.",
"v.v.2.l.2.(.(.u.x.x.x.u.j (.2.l.2.v.v.",
"R R R R R R R R R R R R R R R R R R R ",
";.;.;.;.;.;.;.;.;.;.;.;.;.;.;.;.;.;.;.",
"y.y.y.y.y.y.y.y.y.y.y.y.y.y.y.y.y.y.y.",
"z.z.z.z.z.z.z.z.z.z.z.z.z.z.z.z.z.z.z.",
". . . + + + + + + + @ @ @ @ # # $ $ $ ",
"% % % % % % % % % % % % % % % % % % % ",
"& & & & & & & & & & & & & & & & & & & ",
"& & & & & & & & & & & & & & & & & & & ",
"* * * = * = = - G - A.- = = * = * * * ",
"~ ~ B.B.{ C.y.D.9 z.9 D.y.C.| B.{ ~ ~ ",
"E.} } | R 9 F.G.).S ).7.& 9 R | } } E.",
"j j 0 y.a H. . . . . . . .I.G J.0 j m.",
"* = R a K. . . . . . . . . .L.x.M.%.* ",
"} ..9 '. . . . . . . . . . .N.O.z.T E.",
"} y.% N. . . . . . . . . . . .N.P.y.E.",
"j k Q.N. . .y.( ( ( ( ( (  . .N.R.9 l.",
"B.9 K. . . .y. . . . . .y. . . .S.9 T.",
"j 9  . . . .y. . . . . .y. . . .Y 9 l.",
"= 9 U. . . .y. . . . . .y. . . . .9 V.",
"W.9 X.N. . .y.( ( ( ( ( (  . .N.O.9 k.",
"Y.y.Z.W  . . . . . . . . . . .Y e.`. +",
".+++z.-.W  . . . . . . . . .W L.@+0 #+",
"v..+$+l.N.W  . . . . . . .W W v.%+l.v.",
"k.k.&+y.j Q V N. . . .N.V S.t.y.E.k.*+",
"v.2.2.&+=+9 e.=.-+;+-+>+,+y.=+'+2.2.v.",
"v.v.2.2..+| )+k 9 z.9 k y.- l.2.2.v.v.",
"v.v.v.2.v..+.+'+m.m.m.'+l..+v.2.v.v.v.",
"R R R R R R R R R R R R R R R R R R R ",
";.;.;.;.;.;.;.;.;.;.;.;.;.;.;.;.;.;.;.",
"y.y.y.y.y.y.y.y.y.y.y.y.y.y.y.y.y.y.y.",
"z.z.z.z.z.z.z.z.z.z.z.z.z.z.z.z.z.z.z."};
