/* XPM */
static char * restoreI_xpm[] = {
"19 54 78 1",
" 	c None",
".	c #43423E",
"+	c #403F3C",
"@	c #3C3B37",
"#	c #44433F",
"$	c #504F4A",
"%	c #56554F",
"&	c #595853",
"*	c #51504A",
"=	c #45443F",
"-	c #3F3E39",
";	c #53524D",
">	c #5C5B55",
",	c #54534E",
"'	c #403F3B",
")	c #595852",
"!	c #5A5953",
"~	c #3F3E3A",
"{	c #55544F",
"]	c #5D5C56",
"^	c #575650",
"/	c #464540",
"(	c #484742",
"_	c #53524C",
":	c #3A3935",
"<	c #595854",
"[	c #5B5A55",
"}	c #5F5E58",
"|	c #575651",
"1	c #494844",
"2	c #4C4B46",
"3	c #5E5D57",
"4	c #5E5D58",
"5	c #3C3C38",
"6	c #42413D",
"7	c #605F59",
"8	c #41403C",
"9	c #585752",
"0	c #5C5B56",
"a	c #44433E",
"b	c #595953",
"c	c #62615B",
"d	c #5A5954",
"e	c #4D4C47",
"f	c #4B4A45",
"g	c #6A6962",
"h	c #706F69",
"i	c #61605A",
"j	c #41403B",
"k	c #65645E",
"l	c #75746D",
"m	c #686760",
"n	c #43423D",
"o	c #6F6E67",
"p	c #717069",
"q	c #686761",
"r	c #76756E",
"s	c #6B6A63",
"t	c #62615C",
"u	c #3D3C38",
"v	c #67665F",
"w	c #72716B",
"x	c #777670",
"y	c #71706A",
"z	c #676660",
"A	c #52514C",
"B	c #77766F",
"C	c #565550",
"D	c #6E6D67",
"E	c #464541",
"F	c #484743",
"G	c #6B6A64",
"H	c #787770",
"I	c #494843",
"J	c #6C6B65",
"K	c #797972",
"L	c #7A7972",
"M	c #6E6D66",
"...................",
"+++++++++++++++++++",
"+++++++++++++++++++",
"+++++++++++++++++++",
"@@@@@@@@@@@@@@@@@@@",
"@@@@@@@@@@@@@@@@@@@",
"@@@@@@#$%&%*=@@@@@@",
"@@@@-;>>>>>>>,'@@@@",
"@@@-)>>>>>>>>>!~@@@",
"@@@{]>>>>>>>>>]^@@@",
"@@/]>>>>>>>>>>>](@@",
"@@_]>>@::::::>>]{@@",
"@@<>>>@>>>>>@>>>[@@",
"@@]>>>@>>>>>@>>>}@@",
"@@[>>>@>>>>>@>>>]@@",
"@@%]>>@::::::>>]|@@",
"@@1}>>>>>>>>>>>}2@@",
"@@@!3>>>>>>>>>4[5@@",
"@@@6}}>>>>>>>}7.@@@",
"@@@@89730>037]a@@@@",
"@@@@@@2bcccde5@@@@@",
"@@@@@@@@@@@@@@@@@@@",
"@@@@@@@@@@@@@@@@@@@",
"@@@@@@@@@@@@@@@@@@@",
"@@@@@@@@@@@@@@@@@@@",
"@@@@@@@@@@@@@@@@@@@",
"@@@@@@@@@@@@@@@@@@@",
"...................",
"+++++++++++++++++++",
"+++++++++++++++++++",
"+++++++++++++++++++",
"@@@@@@@@@@@@@@@@@@@",
"@@@@@@@@@@@@@@@@@@@",
"@@@@@@f7ghgi2@@@@@@",
"@@@@jklllllllmn@@@@",
"@@@jolllllllllp6@@@",
"@@@qllllllllllrs@@@",
"@@erlllllllllllr$@@",
"@@trllu::::::llrv@@",
"@@olllulllllulllw@@",
"@@llllulllllulllx@@",
"@@ylllulllllullll@@",
"@@zrllu::::::llrs@@",
"@@ABlllllllllllxC@@",
"@@@DBlllllllllBpu@@",
"@@@ErBlllllllBBF@@@",
"@@@@#GHrlllrHwI@@@@",
"@@@@@@CJKLKM9u@@@@@",
"@@@@@@@@@@@@@@@@@@@",
"@@@@@@@@@@@@@@@@@@@",
"@@@@@@@@@@@@@@@@@@@",
"@@@@@@@@@@@@@@@@@@@",
"@@@@@@@@@@@@@@@@@@@",
"@@@@@@@@@@@@@@@@@@@"};
