/* XPM */
static char * linux_xpm[] = {
"22 22 87 1",
" 	c None",
".	c #B5B4B0",
"+	c #FBFBFA",
"@	c #AFAEAA",
"#	c #6D6B63",
"$	c #82817A",
"%	c #6F6D65",
"&	c #F8F8F7",
"*	c #FFFFFF",
"=	c #F6F6F5",
"-	c #87857F",
";	c #D6D6D3",
">	c #B1B0AC",
",	c #FAFAFA",
"'	c #B0AFAB",
")	c #CFCFCC",
"!	c #8D8A84",
"~	c #E3E2E1",
"{	c #FDFCFC",
"]	c #85827C",
"^	c #C2C1BF",
"/	c #DEDEDC",
"(	c #888681",
"_	c #BFBEBC",
":	c #C1C0BE",
"<	c #EEEDED",
"[	c #FCFCFC",
"}	c #D6D5D3",
"|	c #D6D6D4",
"1	c #B2B1AE",
"2	c #82807A",
"3	c #7D7B75",
"4	c #B6B5B1",
"5	c #FEFEFE",
"6	c #787670",
"7	c #C8C8C5",
"8	c #D0D0CE",
"9	c #C6C5C2",
"0	c #BFBFBC",
"a	c #777570",
"b	c #73726C",
"c	c #6B6963",
"d	c #F2F2F2",
"e	c #B4B3B0",
"f	c #B4B4B1",
"g	c #B6B5B2",
"h	c #F4F3F3",
"i	c #F6F6F6",
"j	c #F8F8F8",
"k	c #9C9B97",
"l	c #F1F1F0",
"m	c #A5A4A1",
"n	c #F1F1F1",
"o	c #ABAAA7",
"p	c #BBBAB8",
"q	c #6B6964",
"r	c #FBFBFB",
"s	c #8C8B86",
"t	c #CECDCB",
"u	c #B5B4B2",
"v	c #C0C0BD",
"w	c #898884",
"x	c #797873",
"y	c #A2A19E",
"z	c #FAFAF9",
"A	c #686661",
"B	c #C0C0BE",
"C	c #E7E7E6",
"D	c #6F6D68",
"E	c #D3D3D2",
"F	c #CFCECC",
"G	c #EBEBEA",
"H	c #D8D7D6",
"I	c #D6D5D4",
"J	c #9F9E9B",
"K	c #C2C2C0",
"L	c #9D9D99",
"M	c #BCBBB9",
"N	c #807F7B",
"O	c #F9F9F9",
"P	c #CDCDCB",
"Q	c #A4A3A0",
"R	c #75746F",
"S	c #706F6A",
"T	c #F5F5F5",
"U	c #AAA9A7",
"V	c #A9A8A5",
"                      ",
"                      ",
"               .+@    ",
"          #$%  &*=    ",
"         -***; >,'    ",
"       )! ~**{]       ",
"      ^*/ (_:<[}|1    ",
"     2***3    4**56   ",
"     7**8      9**0   ",
"     a=*b      c[*d   ",
"  e,f gh              ",
"  i*j kl              ",
"  mno p*q       r*j   ",
"     s[*t      u**v   ",
"     w***x    y5*zA   ",
"      B*C DEFG5HIJ    ",
"       KL M**[N       ",
"          O**P mlQ    ",
"           RS  i*T    ",
"               UOV    ",
"                      ",
"                      "};
