/* XPM */
static char * taskbuttonbg_xpm[] = {
"1 27 27 1",
" 	c None",
".	c #5A574E",
"+	c #59574D",
"@	c #58564D",
"#	c #57554C",
"$	c #57544B",
"%	c #56534A",
"&	c #54514A",
"*	c #535149",
"=	c #525048",
"-	c #514F48",
";	c #504E47",
">	c #4F4D46",
",	c #4E4C46",
"'	c #4D4B44",
")	c #4C4A44",
"!	c #4B4943",
"~	c #4A4943",
"{	c #494741",
"]	c #484640",
"^	c #474540",
"/	c #46443F",
"(	c #45443F",
"_	c #44423E",
":	c #43413D",
"<	c #41413C",
"[	c #403F3B",
".",
"+",
"@",
"#",
"$",
"%",
"&",
"*",
"=",
"-",
";",
">",
",",
"'",
")",
"!",
"~",
"{",
"]",
"^",
"/",
"(",
"_",
":",
"<",
"[",
"["};
